<svg xmlns="http://www.w3.org/2000/svg" width="360" height="50" viewBox="154 0 50 50"> 
    <!-- <defs id="SvgjsDefs1001"></defs> -->
    <g id="SvgjsG1007" featurekey="R0beK7-0" transform="matrix(0.739975909086243,0,0,0.739975909086243,-3.699879545431215,-11.753777915773835)" fill="#5ca368">
        <g xmlns="http://www.w3.org/2000/svg">
            <path d="M27.001,28.8c1.13-0.749,1.706-1.574,2.214-2.3c0.674-0.964,1.256-1.798,3.106-2.383l1.98-0.626l-1.999-0.561   c-0.03-0.007-0.695-0.19-1.732-0.19c-1.874,0-5.269,0.606-8.301,4.363c-0.175-1.819-0.751-4.494-2.57-5.789l-1.029-0.726   c-1.937-1.357-2.547-1.828-2.541-2.718l0.014-1.986l-1.14,1.625c-0.028,0.042-2.739,4.035,1.883,8.339   c0.299,0.537,0.843,1.736,0.917,2.806c-0.304-0.193-0.688-0.441-1.155-0.746c-0.303-0.201-0.604-0.473-0.946-0.779   c-1.188-1.064-2.813-2.519-6.216-3.112l0,0c-0.54-0.103-2.091-0.483-2.65-0.877L5,21.85l0.913,2.048   c0.065,0.148,1.667,3.649,6.355,5.812c3.537,1.628,3.613,3.624,3.362,4.644c-1.028,0.726-1.834,1.608-2.389,2.664   c-1.946,3.708-0.174,8.022-0.097,8.21L25.98,72.699l0.724,1.553l4.267,9.148l1.18-0.254l0.673-42.189   c-0.012-0.084-1.101-7.817-8.212-8.717c-0.064-0.128-0.138-0.339-0.096-0.645C24.632,30.77,25.514,29.779,27.001,28.8z    M31.589,41.024l-0.067,3.5l-0.021,1.395l-4.477,0.619c-0.339,0.047-0.573,0.359-0.526,0.698c0.042,0.31,0.308,0.535,0.612,0.535   c0.027,0,0.057-0.003,0.086-0.007l4.285-0.593l-0.026,1.854l-0.209,13.131l-4.397,0.607c-0.339,0.047-0.575,0.361-0.527,0.699   c0.041,0.309,0.308,0.533,0.612,0.533c0.026,0,0.056-0.002,0.085-0.004l4.207-0.584l-0.269,17.029l-3.271-7.006l1.758-0.242   c0.339-0.049,0.574-0.361,0.528-0.701c-0.046-0.336-0.341-0.566-0.699-0.529l-2.138,0.297L19.36,55.607l4.218-0.584   c0.338-0.049,0.574-0.361,0.527-0.699c-0.046-0.338-0.347-0.574-0.699-0.529L18.81,54.43l-4.524-9.688   c-0.016-0.041-1.623-3.952,0.054-7.148c1.021-1.944,3.063-3.247,6.08-3.879c0.991-0.216,1.937-0.326,2.813-0.326   C30.493,33.388,31.552,40.799,31.589,41.024z M23.281,31.489c-0.018,0.153,0.045,0.446,0.092,0.672c-0.049,0-0.09-0.01-0.141-0.01   c-0.966,0-2.001,0.118-3.072,0.351c-1.211,0.255-2.282,0.616-3.219,1.076c-0.018-1.438-0.763-3.431-4.153-4.994   c-2.344-1.08-3.846-2.539-4.725-3.636c0.516,0.144,0.978,0.243,1.209,0.285v0.003c0.007,0.003,0.012,0.004,0.018,0.004   c3.041,0.534,4.452,1.796,5.586,2.812c0.374,0.336,0.727,0.652,1.091,0.892c1.356,0.889,2.035,1.301,2.035,1.301l0.694,0.42   l0.222-0.78c0.569-2.003-0.943-4.624-1.007-4.737l-0.117-0.142c-2.367-2.172-2.548-4.16-2.304-5.414   c0.515,0.645,1.351,1.229,2.47,2.012l1.019,0.719c2.297,1.636,2.126,6.534,2.123,6.582c0,0,0.167,0.835,0.305,0.887   c0.171,0.064,0.969-0.732,0.969-0.732c2.563-3.998,5.438-4.833,7.393-5.036c-0.716,0.548-1.146,1.166-1.569,1.771   c-0.487,0.697-0.948,1.357-1.879,1.973C24.445,29,23.423,30.254,23.281,31.489z"></path>
            <path d="M94.479,38.627c-1.271-2.541-5.004-4.974-11.303-3.507c-0.543,0.122-13.234,3-17.128,8.203   c-0.466,0.229-1.969,0.996-3.593,2.146c-1.234,0.869-2.089,1.633-2.718,2.297c0.275-1.891,1.08-4.728,3.259-8.286   c0.58,0.302,1.548,0.642,2.747,0.447c0.377-0.061,0.757-0.172,1.128-0.33c2.454-1.049,2.778-1.283,3.153-2.276   c0.046-0.126,0.101-0.272,0.183-0.449c0.23-0.508,0.517-0.633,0.966-0.776c0.102-0.032,0.253-0.063,0.431-0.091   c0.826-0.133,2.108-0.214,2.065-0.214l0.223-0.016c0.238-0.036,0.686-0.178,1.024-0.678c0.479-0.71,0.536-1.835,0.172-3.438   c-0.058-0.254-0.099-0.597,0.029-0.786c0.327-0.483,2.229-0.251,3.738,0.023c1.009,0.183,1.882,0.34,2.503,0.239h0.001   c0.762-0.139,1.009-0.623,1.088-0.898c0.34-1.188-1.11-2.92-1.964-3.812c1.163,0.063,3.153,0.419,4.37,0.682l0.238,0.051   l0.209-0.124c0.088-0.052,0.859-0.539,0.925-1.479c0.053-0.799-0.425-1.61-1.429-2.414c-0.177-0.14-4.33-3.362-8.881-2.627   c-1.744,0.279-3.312,1.108-4.675,2.483c-0.336,0.368-8.172,9.007-9.035,15.4c-0.543,0.799-3.22,4.976-3.731,9.475   c-0.529-0.832-1.05-1.752-1.217-2.577c-0.198-1.005-0.078-1.208,0.249-1.756c0.304-0.509,0.74-1.246,1.081-2.819l0.227-1.41   c0.563-6.446-5.347-16.465-5.608-16.906c-4.139-6.897-14.578-6.185-15.05-6.148c-0.893,0.111-1.931,0.346-2.039,1.184   c-0.136,1.06,1.563,1.771,1.757,1.848c0.285,0.113,0.725,0.267,1.237,0.444c1.008,0.349,3.521,1.221,4.228,1.787   c-0.639,0.366-3.368,2.021-3.31,3.523c0.011,0.288,0.136,0.819,0.841,1.137c0.424,0.187,1.062,0.318,1.798,0.471   c1.295,0.267,3.251,0.669,3.65,1.497c0.05,0.101,0.199,0.407-0.134,1.072c-0.864,1.727-1.074,2.856-0.661,3.551   c0.23,0.388,0.611,0.534,0.805,0.534c0.005,0.001,0.138,0.038,0.488,0.256c0.116,0.071,0.352,0.188,0.648,0.328   c1.425,0.686,2.21,1.164,2.324,1.391c0.043,0.229,0.049,0.416,0.055,0.585c0.042,1.057,0.288,1.614,2.606,2.904   c2.4,1.341,3.746,1.968,4.517,2.262c0.405,1.285-1.516,1.941-0.922,4.51c0.297,1.29,1.14,2.639,1.849,3.714   c0.003,0.006,0.007,0.014,0.012,0.021c-1.674-0.26-5.214-0.67-8.829-0.218c-4.35,0.543-7.386,2.155-9.032,4.793   c-0.096,0.16-2.271,4.016,4.187,10.514c3.448,3.477,4.602,5.811,4.552,6.676l-1.729,8.867c-0.604,2.748,0.256,3.857,0.356,3.975   l0.385,0.234l0.17-0.02l0.262-0.037l0.158-0.205c0.173-0.223,0.142-0.445,0.104-0.727c-0.068-0.486-0.205-1.496,0.226-2.428   c0.078-0.168,3.652-8.131,3.65-8.131c0.148-0.275,0.605-1.121,4.53-1.613c1.009-0.125,2.189-0.219,3.504-0.275   c0.742-0.035,1.428-0.096,2.063-0.174c7.252-0.908,8.104-4.578,8.14-4.748C72.637,54.67,60.006,49.863,59.644,49.73   c0.684-1.07,1.823-2.042,3.527-3.249c0.934-0.657,2.001-1.301,3.18-1.916c0.78,0.679,2.912,2.21,7.176,3.233   c2.782,0.669,3.351,0.156,3.878-0.374c0.119-0.119,0.251-0.256,0.44-0.394c0.399-0.301,0.713-0.315,1.218-0.217   c0.416,0.079,1.69,0.637,2.395,0.968l0.382,0.053c0.837-0.104,1.601-1.347,2.272-3.693c0.099-0.341,0.311-0.921,0.626-0.961   c0.461-0.057,1.292,0.595,1.96,1.118c0.607,0.478,1.18,0.929,1.733,1.114c0.658,0.223,1.245,0.025,1.575-0.504   c0.657-1.052,0.176-3.336-0.267-4.725c0.731-0.038,2.383,0.557,3.26,0.947c0.101,0.047,0.617,0.286,1.1,0.227   c0.344-0.044,0.619-0.227,0.771-0.512C95.127,40.365,95.007,39.679,94.479,38.627z M72.141,23.852   c1.156-1.167,2.493-1.877,3.974-2.116c4.006-0.646,7.878,2.348,7.91,2.373c0.867,0.693,0.978,1.145,0.968,1.354   c-0.011,0.156-0.092,0.282-0.171,0.373c-1.016-0.212-4.065-0.805-5.221-0.618c-0.575,0.091-0.776,0.387-0.848,0.616   c-0.101,0.339,0.027,0.675,0.382,1.001c1.405,1.282,2.243,2.72,1.993,3.086c-0.378,0.06-1.229-0.094-2.052-0.242   c-1.194-0.216-2.551-0.463-3.565-0.298c-0.654,0.105-1.131,0.373-1.419,0.8c-0.303,0.447-0.372,1.037-0.21,1.755   c0.381,1.674,0.133,2.286,0.009,2.47c-0.077,0.115-0.161,0.146-0.229,0.151c-0.074,0.002-2.226,0.151-2.87,0.361   c-0.6,0.192-1.274,0.481-1.71,1.442c-0.095,0.203-0.159,0.376-0.216,0.524c-0.194,0.519-0.23,0.612-2.482,1.575   c-1.232,0.527-2.429,0.147-2.915-0.131C64.448,32.333,72.078,23.918,72.141,23.852z M53.053,37.685   c-1.939-1.078-1.949-1.326-1.971-1.869c-0.008-0.22-0.02-0.469-0.076-0.765c-0.157-0.849-1.454-1.534-3.005-2.28   c-0.248-0.117-0.444-0.21-0.532-0.264c-0.46-0.287-0.738-0.389-0.897-0.421c-0.034-0.161-0.063-0.749,0.721-2.313   c0.402-0.802,0.449-1.532,0.143-2.166c-0.667-1.376-2.801-1.818-4.515-2.168c-0.64-0.132-1.241-0.259-1.65-0.442   c-0.036-0.36,1.122-1.554,2.792-2.465c0.613-0.334,0.673-0.788,0.652-1.029c-0.084-1.004-1.671-1.719-5.197-2.94   c-0.49-0.171-0.909-0.317-1.181-0.425c-0.252-0.1-0.62-0.316-0.835-0.492c0.15-0.05,0.393-0.11,0.779-0.16   c0.101-0.007,10.121-0.681,13.864,5.555c0.063,0.106,6.365,10.79,5.363,16.739c-0.007,0.043-0.015,0.083-0.022,0.124   C56.912,39.695,55.659,39.142,53.053,37.685z M69.389,65.51c-0.01,0.031-0.993,3.572-9.044,3.932   c-1.35,0.059-2.561,0.156-3.604,0.287c-4.018,0.502-5.018,1.42-5.487,2.293c0,0-1.406,3.135-2.479,5.518l1.233-6.342   c0.062-0.973-0.49-3.262-4.899-7.707c-5.712-5.746-4.014-8.982-4.008-8.994c1.435-2.299,4.169-3.717,8.129-4.211   c4.627-0.58,9.291,0.35,9.321,0.346l0.629,0.246C59.675,51.055,71.248,55.371,69.389,65.51z M93.523,40.01   c-0.277-0.123-2.754-1.205-4.01-1.048c-0.517,0.065-0.774,0.318-0.899,0.516c-0.187,0.301-0.208,0.667-0.063,1.093   c0.611,1.8,0.655,3.463,0.272,3.669c-0.349-0.118-0.865-0.523-1.363-0.913c-0.938-0.733-1.903-1.496-2.877-1.373   c-0.779,0.097-1.339,0.718-1.663,1.848c-0.542,1.894-1.005,2.535-1.201,2.738c-0.571-0.263-1.854-0.833-2.423-0.94   c-0.306-0.059-0.64-0.108-1.007-0.063c-0.414,0.052-0.804,0.216-1.186,0.5c-0.243,0.182-0.42,0.357-0.576,0.513   c-0.238,0.239-0.319,0.319-0.57,0.352c-0.389,0.049-1.069-0.049-2.145-0.308c-3.794-0.909-5.76-2.233-6.517-2.851   c3.917-4.641,16.023-7.385,16.155-7.415c5.606-1.318,8.853,0.719,9.921,2.854c0.228,0.452,0.323,0.739,0.362,0.91   C93.665,40.07,93.591,40.042,93.523,40.01z"></path>
        </g>
    </g>
    <g id="SvgjsG1008" featurekey="nameLeftFeature-0" transform="matrix(1.8499437765602245,0,0,1.8499437765602245,84.7800678209765,1.2703257431019246)" fill="#111111">
        <path d="M10.16 6 l0.58 0 l0 14 l-0.58 0 l0 -6.52 l-8.38 0 l0 6.52 l-0.58 0 l0 -14 l0.58 0 l0 6.9 l8.38 0 l0 -6.9 z M19.9 5.800000000000001 c3.44 0 7.08 2.98 7.08 7.2 s-3.64 7.2 -7.08 7.2 s-7.06 -2.98 -7.06 -7.2 s3.62 -7.2 7.06 -7.2 z M19.9 19.6 c3.1 0 6.5 -2.68 6.5 -6.6 s-3.4 -6.6 -6.5 -6.6 c-3.08 0 -6.48 2.68 -6.48 6.6 s3.4 6.6 6.48 6.6 z M43.3 6 l0 14 l-0.58 0 l0 -12.7 l-6.34 12.7 l-0.38 0 l-6.34 -12.72 l0 12.72 l-0.58 0 l0 -14 l0.58 0 l6.54 13.1 l6.52 -13.1 l0.58 0 z M46.28 19.42 l7.28 0 l0 0.58 l-7.68 0 l-0.18 0 l0 -14 l0.58 0 l7.1 0 l0 0.58 l-7.1 0 l0 6.1 l5.66 0 l0 0.58 l-5.66 0 l0 6.16 z"></path>
    </g>
    <g id="SvgjsG1009" featurekey="nameRightFeature-0" transform="matrix(1.9027993886438253,0,0,1.9027993886438253,190.29984295004374,0.583204575462501)" fill="#111111">
        <path d="M12.1 6 c3.14 0 5.18 1.9 5.18 4.76 c0 2.82 -2.04 4.58 -5.18 4.58 l-1.98 0 l0 4.66 l-2.92 0 l0 -14 l4.9 0 z M11.92 12.82 c1.44 0 2.44 -0.56 2.44 -2.06 c0 -1.48 -1 -2.08 -2.44 -2.08 l-1.8 0 l0 4.14 l1.8 0 z M30.36 20 l-1.06 -2.5 l-6.76 0 l-1.06 2.5 l-3.1 0 l6.22 -14 l2.64 0 l6.24 14 l-3.12 0 z M23.560000000000002 15.120000000000001 l4.72 0 l-2.36 -5.54 z M44.24 6 l2.92 0 l0 14 l-2.22 0 l-6.94 -8.68 l0 8.68 l-2.92 0 l0 -14 l2.26 0 l6.9 8.7 l0 -8.7 z M59.06 6 l0 2.68 l-3.48 0 l0 11.32 l-2.92 0 l0 -11.32 l-3.5 0 l0 -2.68 l9.9 0 z M72.08 20 l-3.1 0 l-2.98 -4.66 l-0.04 0 l-1.98 0 l0 4.66 l-2.92 0 l0 -14 l4.9 0 c3.14 0 5.18 1.9 5.18 4.76 c0 1.9 -0.92 3.32 -2.48 4.04 z M63.98 8.68 l0 4.14 l1.8 0 c1.44 0 2.44 -0.56 2.44 -2.06 c0 -1.48 -1 -2.08 -2.44 -2.08 l-1.8 0 z M86.84 6 l-5.32 8.04 l0 5.96 l-2.92 0 l0 -5.96 l-5.32 -8.04 l3.3 0 l3.48 5.4 l3.48 -5.4 l3.3 0 z"></path>
    </g>
</svg>